<svg id="Capa_2" data-name="Capa 2" xmlns="http://www.w3.org/2000/svg" viewBox="0 0 284.41 69.25">
  <defs>
    <style>
      .cls-1 {
        fill: none;
      }

      .cls-1, .cls-2 {
        stroke: #fff;
        stroke-miterlimit: 10;
      }

      .cls-2 {
        fill: #574294;
      }
    </style>
  </defs>
  <g id="Capa_1-2" data-name="Capa 1">
    <g>
      <g>
        <path class="cls-1" d="m110.23,1.06c17.96-3.15,33.77,7.42,38.8,23.07h-10.83c-3.94-8.04-12.14-13.45-21.66-13.45-13.29,0-23.95,10.5-23.95,23.95s10.66,23.95,23.95,23.95c9.52,0,17.72-5.41,21.66-13.45h10.83c-4.43,13.78-17.23,23.63-32.48,23.63-21.25,0-37.92-19.36-33.37-41.43,2.76-13.4,13.58-23.9,27.05-26.27Z"/>
        <path class="cls-1" d="m160.25,34.67c0-18.69,15.11-33.8,33.8-33.8s33.8,15.11,33.8,33.8-15.11,33.8-33.8,33.8-33.8-15.11-33.8-33.8Zm57.53,0c0-13.16-10.73-23.73-23.73-23.73s-23.73,10.56-23.73,23.73,10.56,23.73,23.73,23.73,23.73-10.56,23.73-23.73Z"/>
        <path class="cls-1" d="m240.52,54.33l9.75-3.9c.97,4.71,6.83,8.13,12.84,8.13s10.73-3.25,10.73-8.94c0-5.2-4.23-7.31-12.03-10.4-11.54-4.39-18.36-9.59-18.36-19.83,0-11.86,9.26-18.53,18.85-18.53,8.29,0,16.58,4.88,19.01,10.72l-8.78,4.55c-1.79-3.41-5.53-5.2-9.75-5.2-5.36,0-9.1,2.6-9.1,8.12s4.06,7.48,12.03,10.89c8.45,3.41,18.2,7.96,18.2,19.66s-9.42,18.85-20.8,18.85c-10.4,0-20.15-6.34-22.59-14.14Z"/>
      </g>
      <path class="cls-2" d="m66.9,36.12H10.42c.64,12.32,10.72,21.92,23.36,21.92,9.6,0,17.92-5.6,21.44-13.92h10.56c-4.17,13.79-16.85,23.88-32.1,23.84-17.72-.05-32.53-14.33-33.16-32.05C-.16,16.95,14.97,1.4,33.78,1.4s32.8,14.24,33.28,32.64l-.16,2.08ZM11.35,27.12h44.69c-3.09-9.42-11.86-16.09-22.26-16.09s-19.18,6.66-22.43,16.09Z"/>
    </g>
  </g>
</svg>