<?xml version="1.0" standalone="no"?>
<!DOCTYPE svg PUBLIC "-//W3C//DTD SVG 20010904//EN"
 "http://www.w3.org/TR/2001/REC-SVG-20010904/DTD/svg10.dtd">
<svg version="1.0" xmlns="http://www.w3.org/2000/svg"
 width="1017.000000pt" height="1280.000000pt" viewBox="0 0 1017.000000 1280.000000"
 preserveAspectRatio="xMidYMid meet">
<metadata>
Created by potrace 1.15, written by Peter Selinger 2001-2017
</metadata>
<g transform="translate(0.000000,1280.000000) scale(0.100000,-0.100000)"
fill="#000000" stroke="none">
<path d="M0 12635 l0 -165 671 0 c588 0 673 2 683 15 7 10 10 67 8 165 l-3
150 -680 0 -679 0 0 -165z"/>
<path d="M1400 12635 l0 -165 725 0 c706 0 725 0 735 19 5 11 10 84 10 165 l0
146 -735 0 -735 0 0 -165z"/>
<path d="M2900 12635 l0 -165 725 0 c706 0 725 0 735 19 5 11 10 84 10 165 l0
146 -735 0 -735 0 0 -165z"/>
<path d="M4400 12635 l0 -165 723 0 c549 0 726 3 735 12 8 8 12 59 12 165 l0
153 -735 0 -735 0 0 -165z"/>
<path d="M5900 12635 l0 -165 723 0 c549 0 726 3 735 12 8 8 12 59 12 165 l0
153 -735 0 -735 0 0 -165z"/>
<path d="M7400 12635 l0 -165 723 0 c549 0 726 3 735 12 8 8 12 59 12 165 l0
153 -735 0 -735 0 0 -165z"/>
<path d="M8900 12635 l0 -165 635 0 635 0 0 165 0 165 -635 0 -635 0 0 -165z"/>
<path d="M0 12265 l0 -155 293 0 c215 0 296 3 305 12 8 8 12 57 12 155 l0 143
-305 0 -305 0 0 -155z"/>
<path d="M662 12408 c-8 -8 -12 -57 -12 -155 l0 -143 718 0 c688 0 720 1 736
19 14 15 16 38 14 152 l-3 134 -720 3 c-552 2 -724 -1 -733 -10z"/>
<path d="M2162 12408 c-8 -8 -12 -57 -12 -155 l0 -143 718 0 c684 0 720 1 735
18 14 15 17 42 17 155 l0 137 -723 0 c-549 0 -726 -3 -735 -12z"/>
<path d="M3662 12408 c-8 -8 -12 -57 -12 -155 l0 -143 718 0 c684 0 720 1 735
18 14 15 17 42 17 155 l0 137 -723 0 c-549 0 -726 -3 -735 -12z"/>
<path d="M5160 12401 c-5 -11 -10 -81 -10 -155 l0 -136 719 0 c641 0 721 2
735 16 13 12 16 41 16 155 l0 139 -725 0 c-706 0 -725 0 -735 -19z"/>
<path d="M6660 12401 c-5 -11 -10 -81 -10 -155 l0 -136 725 0 c706 0 725 0
735 19 5 11 10 81 10 155 l0 136 -725 0 c-706 0 -725 0 -735 -19z"/>
<path d="M8170 12410 c-12 -7 -15 -36 -15 -152 l0 -143 719 -3 c523 -1 723 1
732 9 11 9 14 46 14 155 l0 144 -717 0 c-434 0 -724 -4 -733 -10z"/>
<path d="M9665 12396 c-13 -19 -15 -49 -13 -152 l3 -129 258 -3 257 -2 0 155
0 155 -245 0 -245 0 -15 -24z"/>
<path d="M0 11910 l0 -160 665 0 c620 0 666 1 683 18 15 15 16 33 12 157 l-5
140 -677 3 -678 2 0 -160z"/>
<path d="M1417 12052 c-14 -15 -17 -42 -17 -160 l0 -142 715 0 c702 0 715 0
735 20 18 18 20 33 20 154 0 113 -2 135 -16 140 -9 3 -332 6 -718 6 -668 0
-704 -1 -719 -18z"/>
<path d="M2916 12051 c-14 -16 -16 -38 -14 -157 l3 -139 709 -3 c626 -2 712 0
733 13 23 16 23 18 21 158 l-3 142 -716 3 c-688 2 -716 1 -733 -17z"/>
<path d="M4421 12053 c-21 -17 -22 -25 -19 -158 l3 -140 709 -3 c626 -2 712 0
733 13 23 16 23 18 21 158 l-3 142 -711 3 c-666 2 -713 1 -733 -15z"/>
<path d="M5920 12050 c-19 -19 -20 -31 -18 -158 l3 -137 709 -3 c626 -2 712 0
733 13 23 16 23 18 21 158 l-3 142 -712 3 c-705 2 -713 2 -733 -18z"/>
<path d="M7420 12050 c-19 -19 -20 -31 -18 -158 l3 -137 714 -3 c658 -2 716
-1 733 15 17 15 18 31 16 157 l-3 141 -712 3 c-705 2 -713 2 -733 -18z"/>
<path d="M8920 12050 c-19 -19 -20 -31 -18 -158 l3 -137 633 -3 632 -2 0 160
0 160 -615 0 c-605 0 -615 0 -635 -20z"/>
<path d="M0 11555 l0 -155 293 0 c215 0 296 3 305 12 8 8 12 57 12 155 l0 143
-305 0 -305 0 0 -155z"/>
<path d="M662 11698 c-8 -8 -12 -57 -12 -155 l0 -143 718 0 c688 0 720 1 736
19 14 15 16 38 14 152 l-3 134 -720 3 c-552 2 -724 -1 -733 -10z"/>
<path d="M2168 11699 c-16 -9 -18 -27 -18 -154 l0 -145 725 0 c713 0 724 0
735 20 6 12 9 72 8 152 l-3 133 -715 2 c-473 2 -721 -1 -732 -8z"/>
<path d="M3667 11692 c-14 -15 -17 -42 -17 -155 l0 -137 725 0 c706 0 725 0
735 19 5 11 10 81 10 155 l0 136 -718 0 c-684 0 -720 -1 -735 -18z"/>
<path d="M5167 11692 c-14 -15 -17 -42 -17 -155 l0 -137 723 0 c549 0 726 3
735 12 8 8 12 57 12 155 l0 143 -718 0 c-684 0 -720 -1 -735 -18z"/>
<path d="M6667 11692 c-14 -15 -17 -42 -17 -155 l0 -137 723 0 c549 0 726 3
735 12 8 8 12 57 12 155 l0 143 -718 0 c-684 0 -720 -1 -735 -18z"/>
<path d="M8166 11688 c-13 -18 -16 -51 -16 -155 l0 -133 723 0 c549 0 726 3
735 12 8 8 12 57 12 155 l0 143 -719 0 -720 0 -15 -22z"/>
<path d="M9669 11693 c-10 -12 -14 -51 -14 -152 l0 -136 258 -3 257 -2 0 155
0 155 -244 0 c-214 0 -245 -2 -257 -17z"/>
<path d="M0 11195 l0 -155 668 0 c506 0 671 3 680 12 8 8 12 57 12 155 l0 143
-680 0 -680 0 0 -155z"/>
<path d="M1412 11338 c-8 -8 -12 -57 -12 -155 l0 -143 718 0 c684 0 720 1 735
18 14 15 17 42 17 155 l0 137 -723 0 c-549 0 -726 -3 -735 -12z"/>
<path d="M2912 11338 c-8 -8 -12 -57 -12 -155 l0 -143 718 0 c684 0 720 1 735
18 14 15 17 42 17 155 l0 137 -723 0 c-549 0 -726 -3 -735 -12z"/>
<path d="M4412 11338 c-8 -8 -12 -57 -12 -155 l0 -143 718 0 c684 0 720 1 735
18 14 15 17 42 17 155 l0 137 -723 0 c-549 0 -726 -3 -735 -12z"/>
<path d="M5910 11331 c-5 -11 -10 -81 -10 -155 l0 -136 719 0 c641 0 721 2
735 16 13 12 16 41 16 155 l0 139 -725 0 c-706 0 -725 0 -735 -19z"/>
<path d="M7410 11330 c-6 -12 -9 -72 -8 -152 l3 -133 713 -3 c480 -1 719 1
733 8 17 10 19 22 19 155 l0 145 -725 0 c-713 0 -724 0 -735 -20z"/>
<path d="M8920 11340 c-12 -7 -15 -36 -15 -152 l0 -143 633 -3 632 -2 0 155 0
155 -617 0 c-371 0 -624 -4 -633 -10z"/>
<path d="M0 10840 l0 -160 286 0 c177 0 293 4 305 10 17 10 19 23 19 160 l0
150 -305 0 -305 0 0 -160z"/>
<path d="M666 10981 c-14 -16 -16 -38 -14 -157 l3 -139 712 -3 c705 -2 713 -2
733 18 19 19 20 31 18 158 l-3 137 -716 3 c-688 2 -716 1 -733 -17z"/>
<path d="M2166 10981 c-14 -16 -16 -38 -14 -157 l3 -139 709 -3 c626 -2 712 0
733 13 23 16 23 18 21 158 l-3 142 -716 3 c-688 2 -716 1 -733 -17z"/>
<path d="M3666 10981 c-14 -16 -16 -38 -14 -157 l3 -139 709 -3 c626 -2 712 0
733 13 23 16 23 18 21 158 l-3 142 -716 3 c-688 2 -716 1 -733 -17z"/>
<path d="M5166 10981 c-14 -16 -16 -38 -14 -157 l3 -139 709 -3 c626 -2 712 0
733 13 23 16 23 18 21 158 l-3 142 -716 3 c-688 2 -716 1 -733 -17z"/>
<path d="M6665 10976 c-13 -19 -15 -49 -13 -157 l3 -134 709 -3 c626 -2 712 0
733 13 23 16 23 18 21 158 l-3 142 -717 3 -717 2 -16 -24z"/>
<path d="M8165 10976 c-13 -19 -15 -50 -13 -157 l3 -134 709 -3 c623 -2 712 0
733 13 22 15 23 20 23 160 l0 145 -720 0 -720 0 -15 -24z"/>
<path d="M9674 10986 c-17 -13 -19 -27 -19 -158 l0 -143 258 -3 257 -2 0 160
0 160 -238 0 c-190 0 -242 -3 -258 -14z"/>
<path d="M0 10485 l0 -155 667 0 c563 0 669 2 682 14 13 12 16 37 13 155 l-3
141 -680 0 -679 0 0 -155z"/>
<path d="M1412 10628 c-8 -8 -12 -57 -12 -155 l0 -143 718 0 c688 0 720 1 736
19 14 15 16 38 14 152 l-3 134 -720 3 c-552 2 -724 -1 -733 -10z"/>
<path d="M2910 10621 c-5 -11 -10 -81 -10 -155 l0 -136 725 0 c706 0 725 0
735 19 5 11 10 81 10 155 l0 136 -725 0 c-706 0 -725 0 -735 -19z"/>
<path d="M4416 10624 c-13 -12 -16 -41 -16 -155 l0 -139 725 0 c706 0 725 0
735 19 5 11 10 81 10 155 l0 136 -719 0 c-641 0 -721 -2 -735 -16z"/>
<path d="M5916 10624 c-13 -12 -16 -41 -16 -155 l0 -139 723 0 c549 0 726 3
735 12 8 8 12 57 12 155 l0 143 -719 0 c-641 0 -721 -2 -735 -16z"/>
<path d="M7417 10622 c-14 -15 -17 -42 -17 -155 l0 -137 723 0 c549 0 726 3
735 12 8 8 12 57 12 155 l0 143 -718 0 c-684 0 -720 -1 -735 -18z"/>
<path d="M8916 10618 c-13 -18 -16 -51 -16 -155 l0 -133 635 0 635 0 0 155 0
155 -619 0 -620 0 -15 -22z"/>
<path d="M0 10125 l0 -155 293 0 c215 0 296 3 305 12 8 8 12 57 12 155 l0 143
-305 0 -305 0 0 -155z"/>
<path d="M662 10268 c-8 -8 -12 -57 -12 -155 l0 -143 720 0 720 0 15 24 c13
19 15 49 13 152 l-3 129 -720 3 c-552 2 -724 -1 -733 -10z"/>
<path d="M2162 10268 c-8 -8 -12 -57 -12 -155 l0 -143 718 0 c684 0 720 1 735
18 14 15 17 42 17 155 l0 137 -723 0 c-549 0 -726 -3 -735 -12z"/>
<path d="M3662 10268 c-8 -8 -12 -57 -12 -155 l0 -143 718 0 c684 0 720 1 735
18 14 15 17 42 17 155 l0 137 -723 0 c-549 0 -726 -3 -735 -12z"/>
<path d="M5160 10261 c-5 -11 -10 -81 -10 -155 l0 -136 718 0 c684 0 720 1
735 18 14 15 17 42 17 155 l0 137 -725 0 c-706 0 -725 0 -735 -19z"/>
<path d="M6660 10260 c-6 -12 -9 -72 -8 -152 l3 -133 714 -3 c654 -2 716 -1
733 14 16 15 18 34 18 156 l0 138 -725 0 c-713 0 -724 0 -735 -20z"/>
<path d="M8160 10260 c-6 -12 -9 -72 -8 -152 l3 -133 717 -3 c641 -2 718 0
732 14 13 13 16 41 16 155 l0 139 -725 0 c-713 0 -724 0 -735 -20z"/>
<path d="M9665 10256 c-13 -19 -15 -49 -13 -152 l3 -129 258 -3 257 -2 0 155
0 155 -245 0 -245 0 -15 -24z"/>
<path d="M0 9770 l0 -160 671 2 c600 3 672 5 682 19 8 11 11 61 9 157 l-3 142
-680 0 -679 0 0 -160z"/>
<path d="M1416 9911 c-14 -16 -16 -38 -14 -157 l3 -139 712 -3 c705 -2 713 -2
733 18 19 19 20 31 18 158 l-3 137 -716 3 c-688 2 -716 1 -733 -17z"/>
<path d="M2916 9911 c-14 -16 -16 -38 -14 -157 l3 -139 709 -3 c626 -2 712 0
733 13 23 16 23 18 21 158 l-3 142 -716 3 c-688 2 -716 1 -733 -17z"/>
<path d="M4416 9911 c-14 -16 -16 -38 -14 -157 l3 -139 709 -3 c626 -2 712 0
733 13 23 16 23 18 21 158 l-3 142 -716 3 c-688 2 -716 1 -733 -17z"/>
<path d="M5916 9911 c-14 -16 -16 -38 -14 -157 l3 -139 709 -3 c623 -2 712 0
733 13 22 15 23 20 23 160 l0 145 -718 0 c-688 0 -720 -1 -736 -19z"/>
<path d="M7415 9906 c-13 -19 -15 -50 -13 -157 l3 -134 709 -3 c623 -2 712 0
733 13 22 15 23 20 23 160 l0 145 -720 0 -720 0 -15 -24z"/>
<path d="M8915 9906 c-13 -19 -15 -50 -13 -157 l3 -134 633 -3 632 -2 0 160 0
160 -620 0 -620 0 -15 -24z"/>
<path d="M0 9415 l0 -155 293 0 c215 0 296 3 305 12 8 8 12 57 12 155 l0 143
-305 0 -305 0 0 -155z"/>
<path d="M662 9558 c-8 -8 -12 -57 -12 -155 l0 -143 718 0 c688 0 720 1 736
19 14 15 16 38 14 152 l-3 134 -720 3 c-552 2 -724 -1 -733 -10z"/>
<path d="M2162 9558 c-8 -8 -12 -57 -12 -155 l0 -143 719 0 c641 0 721 2 735
16 13 12 16 41 16 155 l0 139 -723 0 c-549 0 -726 -3 -735 -12z"/>
<path d="M3660 9551 c-5 -11 -10 -81 -10 -155 l0 -136 725 0 c706 0 725 0 735
19 5 11 10 81 10 155 l0 136 -725 0 c-706 0 -725 0 -735 -19z"/>
<path d="M5166 9554 c-13 -12 -16 -41 -16 -155 l0 -139 725 0 c706 0 725 0
735 19 5 11 10 81 10 155 l0 136 -719 0 c-641 0 -721 -2 -735 -16z"/>
<path d="M6667 9552 c-14 -15 -17 -42 -17 -155 l0 -137 723 0 c549 0 726 3
735 12 8 8 12 57 12 155 l0 143 -718 0 c-684 0 -720 -1 -735 -18z"/>
<path d="M8166 9548 c-13 -18 -16 -51 -16 -155 l0 -133 723 0 c549 0 726 3
735 12 8 8 12 57 12 155 l0 143 -719 0 -720 0 -15 -22z"/>
<path d="M9665 9546 c-13 -19 -15 -49 -13 -152 l3 -129 258 -3 257 -2 0 155 0
155 -245 0 -245 0 -15 -24z"/>
<path d="M0 9055 l0 -155 661 0 c436 0 667 4 680 10 17 10 19 23 19 155 l0
145 -680 0 -680 0 0 -155z"/>
<path d="M1412 9198 c-8 -8 -12 -57 -12 -155 l0 -143 718 0 c684 0 720 1 735
18 14 15 17 42 17 155 l0 137 -723 0 c-549 0 -726 -3 -735 -12z"/>
<path d="M2912 9198 c-8 -8 -12 -57 -12 -155 l0 -143 718 0 c684 0 720 1 735
18 14 15 17 42 17 155 l0 137 -723 0 c-549 0 -726 -3 -735 -12z"/>
<path d="M4412 9198 c-8 -8 -12 -57 -12 -155 l0 -143 718 0 c684 0 720 1 735
18 14 15 17 42 17 155 l0 137 -723 0 c-549 0 -726 -3 -735 -12z"/>
<path d="M5910 9190 c-6 -12 -9 -72 -8 -152 l3 -133 714 -3 c654 -2 716 -1
733 14 16 15 18 34 18 156 l0 138 -725 0 c-713 0 -724 0 -735 -20z"/>
<path d="M7410 9190 c-6 -12 -9 -72 -8 -152 l3 -133 714 -3 c654 -2 716 -1
733 14 16 15 18 34 18 156 l0 138 -725 0 c-713 0 -724 0 -735 -20z"/>
<path d="M8909 9184 c-5 -15 -8 -84 -7 -153 l3 -126 633 -3 632 -2 0 155 0
155 -625 0 -625 0 -11 -26z"/>
<path d="M0 8700 l0 -161 295 3 c250 3 297 5 305 18 5 8 10 79 10 158 l0 142
-305 0 -305 0 0 -160z"/>
<path d="M667 8847 c-16 -11 -17 -29 -15 -157 l3 -145 718 0 c704 0 719 0 733
20 11 15 14 49 12 155 l-3 135 -715 3 c-565 2 -720 -1 -733 -11z"/>
<path d="M2166 8844 c-14 -13 -16 -38 -14 -157 l3 -142 718 0 c704 0 719 0
733 20 11 15 14 49 12 155 l-3 135 -717 3 c-646 2 -718 1 -732 -14z"/>
<path d="M3666 8841 c-14 -16 -16 -38 -14 -157 l3 -139 705 -2 c554 -2 710 0
730 10 25 13 25 13 25 157 l0 145 -716 3 c-688 2 -716 1 -733 -17z"/>
<path d="M5167 8842 c-25 -27 -25 -287 -1 -296 9 -3 327 -6 707 -6 537 0 698
3 717 13 25 12 25 14 28 160 l3 147 -719 0 c-684 0 -720 -1 -735 -18z"/>
<path d="M6667 8842 c-25 -27 -25 -287 -1 -296 9 -3 327 -6 707 -6 537 0 698
3 717 13 25 12 25 14 28 160 l3 147 -719 0 c-684 0 -720 -1 -735 -18z"/>
<path d="M8166 8838 c-23 -33 -23 -283 0 -292 9 -3 327 -6 707 -6 537 0 698 3
717 13 25 12 25 14 28 160 l3 147 -720 0 -720 0 -15 -22z"/>
<path d="M9669 8843 c-20 -23 -26 -282 -7 -294 7 -5 124 -9 261 -9 l247 0 0
160 0 160 -244 0 c-214 0 -245 -2 -257 -17z"/>
<path d="M0 8345 l0 -155 668 0 c506 0 671 3 680 12 8 8 12 57 12 155 l0 143
-680 0 -680 0 0 -155z"/>
<path d="M1412 8488 c-8 -8 -12 -57 -12 -155 l0 -143 718 0 c684 0 720 1 735
18 14 15 17 42 17 155 l0 137 -723 0 c-549 0 -726 -3 -735 -12z"/>
<path d="M2912 8488 c-8 -8 -12 -57 -12 -155 l0 -143 718 0 c684 0 720 1 735
18 14 15 17 42 17 155 l0 137 -723 0 c-549 0 -726 -3 -735 -12z"/>
<path d="M4410 8481 c-5 -11 -10 -81 -10 -155 l0 -136 719 0 c641 0 721 2 735
16 13 12 16 41 16 155 l0 139 -725 0 c-706 0 -725 0 -735 -19z"/>
<path d="M5910 8481 c-5 -11 -10 -81 -10 -155 l0 -136 725 0 c706 0 725 0 735
19 5 11 10 81 10 155 l0 136 -725 0 c-706 0 -725 0 -735 -19z"/>
<path d="M7416 8484 c-13 -12 -16 -41 -16 -155 l0 -139 723 0 c549 0 726 3
735 12 8 8 12 57 12 155 l0 143 -719 0 c-641 0 -721 -2 -735 -16z"/>
<path d="M8915 8476 c-13 -19 -15 -49 -13 -152 l3 -129 633 -3 632 -2 0 155 0
155 -620 0 -620 0 -15 -24z"/>
<path d="M0 7990 l0 -160 286 0 c177 0 293 4 305 10 17 10 19 23 19 160 l0
150 -305 0 -305 0 0 -160z"/>
<path d="M667 8132 c-14 -16 -17 -42 -17 -160 l0 -142 715 0 c705 0 715 0 735
20 19 19 20 31 18 158 l-3 137 -716 3 c-683 2 -717 1 -732 -16z"/>
<path d="M2167 8132 c-14 -16 -17 -42 -17 -160 l0 -142 714 0 c665 0 715 1
735 18 21 16 22 24 19 157 l-3 140 -716 3 c-683 2 -717 1 -732 -16z"/>
<path d="M3671 8133 c-21 -17 -22 -25 -19 -158 l3 -140 714 -3 c658 -2 716 -1
733 15 17 15 18 31 16 157 l-3 141 -711 3 c-666 2 -713 1 -733 -15z"/>
<path d="M5171 8133 c-21 -17 -22 -25 -19 -158 l3 -140 714 -3 c658 -2 716 -1
733 15 17 15 18 31 16 157 l-3 141 -711 3 c-666 2 -713 1 -733 -15z"/>
<path d="M6670 8130 c-19 -19 -20 -31 -18 -158 l3 -137 714 -3 c658 -2 716 -1
733 15 17 15 18 31 16 157 l-3 141 -712 3 c-705 2 -713 2 -733 -18z"/>
<path d="M8170 8130 c-19 -19 -20 -31 -18 -158 l3 -137 714 -3 c658 -2 716 -1
733 15 17 15 18 31 16 157 l-3 141 -712 3 c-705 2 -713 2 -733 -18z"/>
<path d="M9674 8136 c-17 -13 -19 -27 -19 -158 l0 -143 258 -3 257 -2 0 160 0
160 -238 0 c-190 0 -242 -3 -258 -14z"/>
<path d="M0 7635 l0 -155 667 0 c563 0 669 2 682 14 13 12 16 37 13 155 l-3
141 -680 0 -679 0 0 -155z"/>
<path d="M1418 7779 c-16 -9 -18 -27 -18 -154 l0 -145 725 0 c713 0 724 0 735
20 6 12 9 72 8 152 l-3 133 -715 2 c-473 2 -721 -1 -732 -8z"/>
<path d="M2916 7774 c-13 -13 -16 -41 -16 -155 l0 -139 725 0 c713 0 724 0
735 20 6 12 9 72 8 152 l-3 133 -717 3 c-641 2 -718 0 -732 -14z"/>
<path d="M4416 7774 c-13 -12 -16 -41 -16 -155 l0 -139 723 0 c549 0 726 3
735 12 8 8 12 57 12 155 l0 143 -719 0 c-641 0 -721 -2 -735 -16z"/>
<path d="M5917 7772 c-14 -15 -17 -42 -17 -155 l0 -137 723 0 c549 0 726 3
735 12 8 8 12 57 12 155 l0 143 -718 0 c-684 0 -720 -1 -735 -18z"/>
<path d="M7416 7768 c-13 -18 -16 -51 -16 -155 l0 -133 723 0 c549 0 726 3
735 12 8 8 12 57 12 155 l0 143 -719 0 -720 0 -15 -22z"/>
<path d="M8916 7768 c-13 -18 -16 -51 -16 -155 l0 -133 635 0 635 0 0 155 0
155 -619 0 -620 0 -15 -22z"/>
<path d="M0 7275 l0 -155 293 0 c215 0 296 3 305 12 8 8 12 57 12 155 l0 143
-305 0 -305 0 0 -155z"/>
<path d="M662 7418 c-8 -8 -12 -57 -12 -155 l0 -143 718 0 c688 0 720 1 736
19 14 15 16 38 14 152 l-3 134 -720 3 c-552 2 -724 -1 -733 -10z"/>
<path d="M2162 7418 c-8 -8 -12 -57 -12 -155 l0 -143 718 0 c684 0 720 1 735
18 14 15 17 42 17 155 l0 137 -723 0 c-549 0 -726 -3 -735 -12z"/>
<path d="M3662 7418 c-8 -8 -12 -57 -12 -155 l0 -143 718 0 c684 0 720 1 735
18 14 15 17 42 17 155 l0 137 -723 0 c-549 0 -726 -3 -735 -12z"/>
<path d="M5160 7411 c-5 -11 -10 -81 -10 -155 l0 -136 718 0 c684 0 720 1 735
18 14 15 17 42 17 155 l0 137 -725 0 c-706 0 -725 0 -735 -19z"/>
<path d="M6660 7411 c-5 -11 -10 -81 -10 -155 l0 -136 719 0 c641 0 721 2 735
16 13 12 16 41 16 155 l0 139 -725 0 c-706 0 -725 0 -735 -19z"/>
<path d="M8170 7420 c-12 -7 -15 -36 -15 -152 l0 -143 717 -3 c641 -2 718 0
732 14 13 13 16 41 16 155 l0 139 -717 0 c-434 0 -724 -4 -733 -10z"/>
<path d="M9665 7406 c-13 -19 -15 -49 -13 -152 l3 -129 258 -3 257 -2 0 155 0
155 -245 0 -245 0 -15 -24z"/>
<path d="M0 6920 l0 -160 665 0 c620 0 666 1 683 18 15 15 17 35 14 160 l-3
142 -680 0 -679 0 0 -160z"/>
<path d="M1417 7062 c-14 -16 -17 -42 -17 -160 l0 -142 715 0 c705 0 715 0
735 20 19 19 20 31 18 158 l-3 137 -716 3 c-683 2 -717 1 -732 -16z"/>
<path d="M2916 7061 c-14 -16 -16 -38 -14 -157 l3 -139 709 -3 c626 -2 712 0
733 13 23 16 23 18 21 158 l-3 142 -716 3 c-688 2 -716 1 -733 -17z"/>
<path d="M4416 7061 c-14 -16 -16 -38 -14 -157 l3 -139 709 -3 c626 -2 712 0
733 13 23 16 23 18 21 158 l-3 142 -716 3 c-688 2 -716 1 -733 -17z"/>
<path d="M5916 7061 c-14 -16 -16 -38 -14 -157 l3 -139 709 -3 c626 -2 712 0
733 13 23 16 23 18 21 158 l-3 142 -716 3 c-688 2 -716 1 -733 -17z"/>
<path d="M7420 7060 c-19 -19 -20 -31 -18 -158 l3 -137 709 -3 c626 -2 712 0
733 13 23 16 23 18 21 158 l-3 142 -712 3 c-705 2 -713 2 -733 -18z"/>
<path d="M8920 7060 c-19 -19 -20 -31 -18 -158 l3 -137 633 -3 632 -2 0 160 0
160 -615 0 c-605 0 -615 0 -635 -20z"/>
<path d="M0 6565 l0 -155 293 0 c215 0 296 3 305 12 8 8 12 57 12 155 l0 143
-305 0 -305 0 0 -155z"/>
<path d="M662 6708 c-8 -8 -12 -57 -12 -155 l0 -143 718 0 c688 0 720 1 736
19 14 15 16 38 14 152 l-3 134 -720 3 c-552 2 -724 -1 -733 -10z"/>
<path d="M2162 6708 c-8 -8 -12 -57 -12 -155 l0 -143 725 0 c713 0 724 0 735
20 6 12 9 72 8 152 l-3 133 -720 3 c-552 2 -724 -1 -733 -10z"/>
<path d="M3666 6704 c-13 -12 -16 -41 -16 -155 l0 -139 725 0 c706 0 725 0
735 19 5 11 10 81 10 155 l0 136 -719 0 c-641 0 -721 -2 -735 -16z"/>
<path d="M5167 6702 c-14 -15 -17 -42 -17 -155 l0 -137 723 0 c549 0 726 3
735 12 8 8 12 57 12 155 l0 143 -718 0 c-684 0 -720 -1 -735 -18z"/>
<path d="M6667 6702 c-14 -15 -17 -42 -17 -155 l0 -137 723 0 c549 0 726 3
735 12 8 8 12 57 12 155 l0 143 -718 0 c-684 0 -720 -1 -735 -18z"/>
<path d="M8166 6698 c-13 -18 -16 -51 -16 -155 l0 -133 723 0 c549 0 726 3
735 12 8 8 12 57 12 155 l0 143 -719 0 -720 0 -15 -22z"/>
<path d="M9665 6696 c-13 -19 -15 -49 -13 -152 l3 -129 258 -3 257 -2 0 155 0
155 -245 0 -245 0 -15 -24z"/>
<path d="M0 6195 l0 -165 668 0 c506 0 671 3 680 12 8 8 12 59 12 165 l0 153
-680 0 -680 0 0 -165z"/>
<path d="M1412 6348 c-8 -8 -12 -59 -12 -165 l0 -153 718 0 c684 0 720 1 735
18 14 16 17 43 17 165 l0 147 -723 0 c-549 0 -726 -3 -735 -12z"/>
<path d="M2912 6348 c-8 -8 -12 -59 -12 -165 l0 -153 718 0 c684 0 720 1 735
18 14 16 17 43 17 165 l0 147 -723 0 c-549 0 -726 -3 -735 -12z"/>
<path d="M4412 6348 c-8 -8 -12 -59 -12 -165 l0 -153 725 0 c706 0 725 0 735
19 5 11 10 84 10 165 l0 146 -723 0 c-549 0 -726 -3 -735 -12z"/>
<path d="M5910 6341 c-5 -11 -10 -84 -10 -165 l0 -146 723 0 c549 0 726 3 735
12 8 8 12 59 12 165 l0 153 -725 0 c-706 0 -725 0 -735 -19z"/>
<path d="M7410 6341 c-5 -11 -10 -84 -10 -165 l0 -146 723 0 c549 0 726 3 735
12 8 8 12 59 12 165 l0 153 -725 0 c-706 0 -725 0 -735 -19z"/>
<path d="M8909 6334 c-5 -15 -8 -88 -7 -163 l3 -136 633 -3 632 -2 0 165 0
165 -625 0 -625 0 -11 -26z"/>
<path d="M0 5825 l0 -155 293 0 c215 0 296 3 305 12 8 8 12 57 12 155 l0 143
-305 0 -305 0 0 -155z"/>
<path d="M662 5968 c-8 -8 -12 -57 -12 -155 l0 -143 719 0 720 0 15 22 c13 18
16 51 16 155 l0 133 -723 0 c-549 0 -726 -3 -735 -12z"/>
<path d="M2162 5968 c-8 -8 -12 -57 -12 -155 l0 -143 718 0 c684 0 720 1 735
18 14 15 17 42 17 155 l0 137 -723 0 c-549 0 -726 -3 -735 -12z"/>
<path d="M3662 5968 c-8 -8 -12 -57 -12 -155 l0 -143 718 0 c684 0 720 1 735
18 14 15 17 42 17 155 l0 137 -723 0 c-549 0 -726 -3 -735 -12z"/>
<path d="M5162 5968 c-8 -8 -12 -57 -12 -155 l0 -143 718 0 c684 0 720 1 735
18 14 15 17 42 17 155 l0 137 -723 0 c-549 0 -726 -3 -735 -12z"/>
<path d="M6660 5960 c-6 -12 -9 -72 -8 -152 l3 -133 714 -3 c654 -2 716 -1
733 14 16 15 18 34 18 156 l0 138 -725 0 c-713 0 -724 0 -735 -20z"/>
<path d="M8160 5960 c-6 -12 -9 -72 -8 -152 l3 -133 717 -3 c641 -2 718 0 732
14 13 13 16 41 16 155 l0 139 -725 0 c-713 0 -724 0 -735 -20z"/>
<path d="M9670 5970 c-12 -7 -15 -36 -15 -152 l0 -143 258 -3 257 -2 0 155 0
155 -242 0 c-136 0 -250 -5 -258 -10z"/>
<path d="M0 5470 l0 -160 671 2 c600 3 672 5 682 19 8 11 11 61 9 157 l-3 142
-680 0 -679 0 0 -160z"/>
<path d="M1416 5611 c-14 -16 -16 -38 -14 -157 l3 -139 718 0 c704 0 719 0
733 20 11 15 14 49 12 155 l-3 135 -716 3 c-688 2 -716 1 -733 -17z"/>
<path d="M2916 5611 c-14 -16 -16 -38 -14 -157 l3 -139 718 0 c704 0 719 0
733 20 11 15 14 49 12 155 l-3 135 -716 3 c-688 2 -716 1 -733 -17z"/>
<path d="M4416 5611 c-14 -16 -16 -38 -14 -157 l3 -139 705 -2 c553 -2 710 0
730 10 25 12 25 14 28 160 l3 147 -719 0 c-688 0 -720 -1 -736 -19z"/>
<path d="M5916 5611 c-14 -16 -16 -38 -14 -157 l3 -139 705 -2 c553 -2 710 0
730 10 25 12 25 14 28 160 l3 147 -719 0 c-688 0 -720 -1 -736 -19z"/>
<path d="M7415 5606 c-13 -19 -15 -50 -13 -157 l3 -134 709 -3 c623 -2 712 0
733 13 22 15 23 20 23 160 l0 145 -720 0 -720 0 -15 -24z"/>
<path d="M8916 5608 c-23 -33 -23 -283 0 -292 9 -3 294 -6 635 -6 l619 0 0
160 0 160 -619 0 -620 0 -15 -22z"/>
<path d="M0 5115 l0 -155 293 0 c215 0 296 3 305 12 8 8 12 57 12 155 l0 143
-305 0 -305 0 0 -155z"/>
<path d="M662 5258 c-8 -8 -12 -57 -12 -155 l0 -143 718 0 c688 0 720 1 736
19 14 15 16 38 14 152 l-3 134 -720 3 c-552 2 -724 -1 -733 -10z"/>
<path d="M2162 5258 c-8 -8 -12 -57 -12 -155 l0 -143 718 0 c684 0 720 1 735
18 14 15 17 42 17 155 l0 137 -723 0 c-549 0 -726 -3 -735 -12z"/>
<path d="M3662 5258 c-8 -8 -12 -57 -12 -155 l0 -143 719 0 c641 0 721 2 735
16 13 12 16 41 16 155 l0 139 -723 0 c-549 0 -726 -3 -735 -12z"/>
<path d="M5160 5251 c-5 -11 -10 -81 -10 -155 l0 -136 725 0 c706 0 725 0 735
19 5 11 10 81 10 155 l0 136 -725 0 c-706 0 -725 0 -735 -19z"/>
<path d="M6666 5254 c-13 -12 -16 -41 -16 -155 l0 -139 725 0 c706 0 725 0
735 19 5 11 10 81 10 155 l0 136 -719 0 c-641 0 -721 -2 -735 -16z"/>
<path d="M8166 5248 c-13 -18 -16 -51 -16 -155 l0 -133 723 0 c549 0 726 3
735 12 8 8 12 57 12 155 l0 143 -719 0 -720 0 -15 -22z"/>
<path d="M9665 5246 c-13 -19 -15 -49 -13 -152 l3 -129 258 -3 257 -2 0 155 0
155 -245 0 -245 0 -15 -24z"/>
<path d="M0 4755 l0 -155 665 0 c620 0 666 1 683 18 15 15 17 34 14 155 l-3
137 -680 0 -679 0 0 -155z"/>
<path d="M1412 4898 c-8 -8 -12 -57 -12 -155 l0 -143 713 0 c629 0 715 2 735
16 21 14 22 22 22 155 l0 139 -723 0 c-549 0 -726 -3 -735 -12z"/>
<path d="M2912 4898 c-8 -8 -12 -57 -12 -155 l0 -143 713 0 c629 0 715 2 735
16 21 14 22 22 22 155 l0 139 -723 0 c-549 0 -726 -3 -735 -12z"/>
<path d="M4411 4896 c-8 -9 -11 -59 -9 -152 l3 -139 714 -3 c654 -2 716 -1
733 14 16 15 18 34 18 156 l0 138 -724 0 c-605 0 -725 -2 -735 -14z"/>
<path d="M5910 4890 c-6 -12 -9 -72 -8 -152 l3 -133 714 -3 c654 -2 716 -1
733 14 16 15 18 34 18 156 l0 138 -725 0 c-713 0 -724 0 -735 -20z"/>
<path d="M7410 4890 c-6 -12 -9 -72 -8 -152 l3 -133 714 -3 c654 -2 716 -1
733 14 16 15 18 34 18 156 l0 138 -725 0 c-713 0 -724 0 -735 -20z"/>
<path d="M8909 4884 c-5 -15 -8 -84 -7 -153 l3 -126 633 -3 632 -2 0 155 0
155 -625 0 -625 0 -11 -26z"/>
<path d="M0 4405 l0 -155 293 0 c215 0 296 3 305 12 8 8 12 57 12 155 l0 143
-305 0 -305 0 0 -155z"/>
<path d="M668 4549 c-16 -9 -18 -27 -18 -154 l0 -145 725 0 c713 0 724 0 735
20 6 12 9 72 8 152 l-3 133 -715 2 c-473 2 -721 -1 -732 -8z"/>
<path d="M2166 4544 c-13 -13 -16 -41 -16 -155 l0 -139 725 0 c713 0 724 0
735 20 6 12 9 72 8 152 l-3 133 -717 3 c-641 2 -718 0 -732 -14z"/>
<path d="M3667 4542 c-14 -15 -17 -42 -17 -155 l0 -137 724 0 c605 0 725 2
735 14 8 9 11 59 9 152 l-3 139 -716 3 c-683 2 -717 1 -732 -16z"/>
<path d="M5167 4542 c-14 -15 -17 -42 -17 -155 l0 -137 723 0 c549 0 726 3
735 12 8 8 12 57 12 155 l0 143 -718 0 c-684 0 -720 -1 -735 -18z"/>
<path d="M6667 4542 c-14 -15 -17 -42 -17 -155 l0 -137 723 0 c549 0 726 3
735 12 8 8 12 57 12 155 l0 143 -718 0 c-684 0 -720 -1 -735 -18z"/>
<path d="M8166 4538 c-13 -18 -16 -51 -16 -155 l0 -133 723 0 c549 0 726 3
735 12 8 8 12 57 12 155 l0 143 -719 0 -720 0 -15 -22z"/>
<path d="M9669 4543 c-10 -12 -14 -51 -14 -152 l0 -136 258 -3 257 -2 0 155 0
155 -244 0 c-214 0 -245 -2 -257 -17z"/>
<path d="M0 4045 l0 -155 668 0 c506 0 671 3 680 12 8 8 12 57 12 155 l0 143
-680 0 -680 0 0 -155z"/>
<path d="M1412 4188 c-8 -8 -12 -57 -12 -155 l0 -143 718 0 c684 0 720 1 735
18 14 15 17 42 17 155 l0 137 -723 0 c-549 0 -726 -3 -735 -12z"/>
<path d="M2912 4188 c-8 -8 -12 -57 -12 -155 l0 -143 718 0 c684 0 720 1 735
18 14 15 17 42 17 155 l0 137 -723 0 c-549 0 -726 -3 -735 -12z"/>
<path d="M4410 4181 c-5 -11 -10 -81 -10 -155 l0 -136 719 0 c641 0 721 2 735
16 13 12 16 41 16 155 l0 139 -725 0 c-706 0 -725 0 -735 -19z"/>
<path d="M5910 4181 c-5 -11 -10 -81 -10 -155 l0 -136 719 0 c641 0 721 2 735
16 13 12 16 41 16 155 l0 139 -725 0 c-706 0 -725 0 -735 -19z"/>
<path d="M7410 4181 c-5 -11 -10 -81 -10 -155 l0 -136 723 0 c549 0 726 3 735
12 8 8 12 57 12 155 l0 143 -725 0 c-706 0 -725 0 -735 -19z"/>
<path d="M8920 4190 c-12 -7 -15 -36 -15 -152 l0 -143 633 -3 632 -2 0 155 0
155 -617 0 c-371 0 -624 -4 -633 -10z"/>
<path d="M0 3690 l0 -160 286 0 c177 0 293 4 305 10 17 10 19 23 19 160 l0
150 -305 0 -305 0 0 -160z"/>
<path d="M667 3832 c-14 -16 -17 -42 -17 -160 l0 -142 715 0 c705 0 715 0 735
20 19 19 20 31 18 158 l-3 137 -716 3 c-683 2 -717 1 -732 -16z"/>
<path d="M2167 3832 c-14 -16 -17 -42 -17 -160 l0 -142 714 0 c665 0 715 1
735 18 21 16 22 24 19 157 l-3 140 -716 3 c-683 2 -717 1 -732 -16z"/>
<path d="M3666 3831 c-14 -16 -16 -38 -14 -157 l3 -139 709 -3 c626 -2 712 0
733 13 23 16 23 18 21 158 l-3 142 -716 3 c-688 2 -716 1 -733 -17z"/>
<path d="M5171 3833 c-21 -17 -22 -25 -19 -158 l3 -140 709 -3 c626 -2 712 0
733 13 23 16 23 18 21 158 l-3 142 -711 3 c-666 2 -713 1 -733 -15z"/>
<path d="M6670 3830 c-19 -19 -20 -31 -18 -158 l3 -137 709 -3 c626 -2 712 0
733 13 23 16 23 18 21 158 l-3 142 -712 3 c-705 2 -713 2 -733 -18z"/>
<path d="M8170 3830 c-19 -19 -20 -31 -18 -158 l3 -137 714 -3 c658 -2 716 -1
733 15 17 15 18 31 16 157 l-3 141 -712 3 c-705 2 -713 2 -733 -18z"/>
<path d="M9674 3836 c-17 -13 -19 -27 -19 -158 l0 -143 258 -3 257 -2 0 160 0
160 -238 0 c-190 0 -242 -3 -258 -14z"/>
<path d="M0 3335 l0 -155 667 0 c563 0 669 2 682 14 13 12 16 37 13 155 l-3
141 -680 0 -679 0 0 -155z"/>
<path d="M1412 3478 c-8 -8 -12 -57 -12 -155 l0 -143 718 0 c688 0 720 1 736
19 14 15 16 38 14 152 l-3 134 -720 3 c-552 2 -724 -1 -733 -10z"/>
<path d="M2916 3474 c-13 -12 -16 -41 -16 -155 l0 -139 725 0 c706 0 725 0
735 19 5 11 10 81 10 155 l0 136 -719 0 c-641 0 -721 -2 -735 -16z"/>
<path d="M4416 3474 c-13 -12 -16 -41 -16 -155 l0 -139 725 0 c706 0 725 0
735 19 5 11 10 81 10 155 l0 136 -719 0 c-641 0 -721 -2 -735 -16z"/>
<path d="M5917 3472 c-14 -15 -17 -42 -17 -155 l0 -137 723 0 c549 0 726 3
735 12 8 8 12 57 12 155 l0 143 -718 0 c-684 0 -720 -1 -735 -18z"/>
<path d="M7416 3468 c-13 -18 -16 -51 -16 -155 l0 -133 723 0 c549 0 726 3
735 12 8 8 12 57 12 155 l0 143 -719 0 -720 0 -15 -22z"/>
<path d="M8916 3468 c-13 -18 -16 -51 -16 -155 l0 -133 635 0 635 0 0 155 0
155 -619 0 -620 0 -15 -22z"/>
<path d="M0 2975 l0 -155 293 0 c215 0 296 3 305 12 8 8 12 57 12 155 l0 143
-305 0 -305 0 0 -155z"/>
<path d="M662 3118 c-8 -8 -12 -57 -12 -155 l0 -143 718 0 c688 0 720 1 736
19 14 15 16 38 14 152 l-3 134 -720 3 c-552 2 -724 -1 -733 -10z"/>
<path d="M2162 3118 c-8 -8 -12 -57 -12 -155 l0 -143 718 0 c684 0 720 1 735
18 14 15 17 42 17 155 l0 137 -723 0 c-549 0 -726 -3 -735 -12z"/>
<path d="M3662 3118 c-8 -8 -12 -57 -12 -155 l0 -143 718 0 c684 0 720 1 735
18 14 15 17 42 17 155 l0 137 -723 0 c-549 0 -726 -3 -735 -12z"/>
<path d="M5160 3111 c-5 -11 -10 -81 -10 -155 l0 -136 718 0 c684 0 720 1 735
18 14 15 17 42 17 155 l0 137 -725 0 c-706 0 -725 0 -735 -19z"/>
<path d="M6660 3111 c-5 -11 -10 -81 -10 -155 l0 -136 719 0 c641 0 721 2 735
16 13 12 16 41 16 155 l0 139 -725 0 c-706 0 -725 0 -735 -19z"/>
<path d="M8170 3120 c-12 -7 -15 -36 -15 -152 l0 -143 717 -3 c641 -2 718 0
732 14 13 13 16 41 16 155 l0 139 -717 0 c-434 0 -724 -4 -733 -10z"/>
<path d="M9665 3106 c-13 -19 -15 -49 -13 -152 l3 -129 258 -3 257 -2 0 155 0
155 -245 0 -245 0 -15 -24z"/>
<path d="M0 2620 l0 -160 665 0 c620 0 666 1 683 18 15 15 17 35 14 160 l-3
142 -680 0 -679 0 0 -160z"/>
<path d="M1416 2761 c-14 -16 -16 -38 -14 -157 l3 -139 712 -3 c705 -2 713 -2
733 18 19 19 20 31 18 158 l-3 137 -716 3 c-688 2 -716 1 -733 -17z"/>
<path d="M2916 2761 c-14 -16 -16 -38 -14 -157 l3 -139 709 -3 c626 -2 712 0
733 13 23 16 23 18 21 158 l-3 142 -716 3 c-688 2 -716 1 -733 -17z"/>
<path d="M4416 2761 c-14 -16 -16 -38 -14 -157 l3 -139 709 -3 c626 -2 712 0
733 13 23 16 23 18 21 158 l-3 142 -716 3 c-688 2 -716 1 -733 -17z"/>
<path d="M5916 2761 c-14 -16 -16 -38 -14 -157 l3 -139 709 -3 c626 -2 712 0
733 13 23 16 23 18 21 158 l-3 142 -716 3 c-688 2 -716 1 -733 -17z"/>
<path d="M7415 2756 c-13 -19 -15 -50 -13 -157 l3 -134 709 -3 c623 -2 712 0
733 13 22 15 23 20 23 160 l0 145 -720 0 -720 0 -15 -24z"/>
<path d="M8915 2756 c-13 -19 -15 -50 -13 -157 l3 -134 633 -3 632 -2 0 160 0
160 -620 0 -620 0 -15 -24z"/>
<path d="M0 2265 l0 -155 293 0 c215 0 296 3 305 12 8 8 12 57 12 155 l0 143
-305 0 -305 0 0 -155z"/>
<path d="M662 2408 c-8 -8 -12 -57 -12 -155 l0 -143 718 0 c688 0 720 1 736
19 14 15 16 38 14 152 l-3 134 -720 3 c-552 2 -724 -1 -733 -10z"/>
<path d="M2162 2408 c-8 -8 -12 -57 -12 -155 l0 -143 725 0 c713 0 724 0 735
20 6 12 9 72 8 152 l-3 133 -720 3 c-552 2 -724 -1 -733 -10z"/>
<path d="M3660 2401 c-5 -11 -10 -81 -10 -155 l0 -136 725 0 c706 0 725 0 735
19 5 11 10 81 10 155 l0 136 -725 0 c-706 0 -725 0 -735 -19z"/>
<path d="M5166 2404 c-13 -12 -16 -41 -16 -155 l0 -139 725 0 c706 0 725 0
735 19 5 11 10 81 10 155 l0 136 -719 0 c-641 0 -721 -2 -735 -16z"/>
<path d="M6667 2402 c-14 -15 -17 -42 -17 -155 l0 -137 723 0 c549 0 726 3
735 12 8 8 12 57 12 155 l0 143 -718 0 c-684 0 -720 -1 -735 -18z"/>
<path d="M8166 2398 c-13 -18 -16 -51 -16 -155 l0 -133 723 0 c549 0 726 3
735 12 8 8 12 57 12 155 l0 143 -719 0 -720 0 -15 -22z"/>
<path d="M9665 2396 c-13 -19 -15 -49 -13 -152 l3 -129 258 -3 257 -2 0 155 0
155 -245 0 -245 0 -15 -24z"/>
<path d="M0 1905 l0 -155 668 0 c506 0 671 3 680 12 8 8 12 57 12 155 l0 143
-680 0 -680 0 0 -155z"/>
<path d="M1412 2048 c-8 -8 -12 -57 -12 -155 l0 -143 718 0 c684 0 720 1 735
18 14 15 17 42 17 155 l0 137 -723 0 c-549 0 -726 -3 -735 -12z"/>
<path d="M2912 2048 c-8 -8 -12 -57 -12 -155 l0 -143 718 0 c684 0 720 1 735
18 14 15 17 42 17 155 l0 137 -723 0 c-549 0 -726 -3 -735 -12z"/>
<path d="M4412 2048 c-8 -8 -12 -57 -12 -155 l0 -143 718 0 c684 0 720 1 735
18 14 15 17 42 17 155 l0 137 -723 0 c-549 0 -726 -3 -735 -12z"/>
<path d="M5910 2040 c-6 -12 -9 -72 -8 -152 l3 -133 714 -3 c654 -2 716 -1
733 14 16 15 18 34 18 156 l0 138 -725 0 c-713 0 -724 0 -735 -20z"/>
<path d="M7410 2040 c-6 -12 -9 -72 -8 -152 l3 -133 717 -3 c641 -2 718 0 732
14 13 13 16 41 16 155 l0 139 -725 0 c-713 0 -724 0 -735 -20z"/>
<path d="M8909 2034 c-5 -15 -8 -84 -7 -153 l3 -126 633 -3 632 -2 0 155 0
155 -625 0 -625 0 -11 -26z"/>
<path d="M0 1550 l0 -160 279 0 c158 0 291 4 305 10 l26 10 0 150 0 150 -305
0 -305 0 0 -160z"/>
<path d="M667 1697 c-16 -11 -17 -29 -15 -157 l3 -145 718 0 c704 0 719 0 733
20 11 15 14 49 12 155 l-3 135 -715 3 c-565 2 -720 -1 -733 -11z"/>
<path d="M2166 1691 c-14 -16 -16 -38 -14 -157 l3 -139 718 0 c704 0 719 0
733 20 11 15 14 49 12 155 l-3 135 -716 3 c-688 2 -716 1 -733 -17z"/>
<path d="M3666 1691 c-14 -16 -16 -38 -14 -157 l3 -139 709 -3 c626 -2 712 0
733 13 23 16 23 18 21 158 l-3 142 -716 3 c-688 2 -716 1 -733 -17z"/>
<path d="M5166 1691 c-14 -16 -16 -38 -14 -157 l3 -139 709 -3 c626 -2 712 0
733 13 23 16 23 18 21 158 l-3 142 -716 3 c-688 2 -716 1 -733 -17z"/>
<path d="M6665 1686 c-13 -19 -15 -50 -13 -157 l3 -134 709 -3 c623 -2 712 0
733 13 22 15 23 20 23 160 l0 145 -720 0 -720 0 -15 -24z"/>
<path d="M8165 1686 c-13 -19 -15 -50 -13 -157 l3 -134 709 -3 c623 -2 712 0
733 13 22 15 23 20 23 160 l0 145 -720 0 -720 0 -15 -24z"/>
<path d="M9669 1693 c-10 -12 -14 -52 -14 -157 l0 -141 258 -3 257 -2 0 160 0
160 -244 0 c-214 0 -245 -2 -257 -17z"/>
<path d="M0 1195 l0 -155 668 0 c506 0 671 3 680 12 8 8 12 57 12 155 l0 143
-680 0 -680 0 0 -155z"/>
<path d="M1412 1338 c-8 -8 -12 -57 -12 -155 l0 -143 718 0 c684 0 720 1 735
18 14 15 17 42 17 155 l0 137 -723 0 c-549 0 -726 -3 -735 -12z"/>
<path d="M2912 1338 c-8 -8 -12 -57 -12 -155 l0 -143 719 0 c641 0 721 2 735
16 13 12 16 41 16 155 l0 139 -723 0 c-549 0 -726 -3 -735 -12z"/>
<path d="M4410 1331 c-5 -11 -10 -81 -10 -155 l0 -136 725 0 c706 0 725 0 735
19 5 11 10 81 10 155 l0 136 -725 0 c-706 0 -725 0 -735 -19z"/>
<path d="M5916 1334 c-13 -12 -16 -41 -16 -155 l0 -139 723 0 c549 0 726 3
735 12 8 8 12 57 12 155 l0 143 -719 0 c-641 0 -721 -2 -735 -16z"/>
<path d="M7416 1334 c-13 -12 -16 -41 -16 -155 l0 -139 723 0 c549 0 726 3
735 12 8 8 12 57 12 155 l0 143 -719 0 c-641 0 -721 -2 -735 -16z"/>
<path d="M8915 1326 c-13 -19 -15 -49 -13 -152 l3 -129 633 -3 632 -2 0 155 0
155 -620 0 -620 0 -15 -24z"/>
<path d="M0 835 l0 -155 286 0 c177 0 293 4 305 10 17 10 19 23 19 155 l0 145
-305 0 -305 0 0 -155z"/>
<path d="M662 978 c-8 -8 -12 -57 -12 -155 l0 -143 720 0 720 0 15 24 c13 19
15 49 13 152 l-3 129 -720 3 c-552 2 -724 -1 -733 -10z"/>
<path d="M2162 978 c-8 -8 -12 -57 -12 -155 l0 -143 718 0 c684 0 720 1 735
18 14 15 17 42 17 155 l0 137 -723 0 c-549 0 -726 -3 -735 -12z"/>
<path d="M3662 978 c-8 -8 -12 -57 -12 -155 l0 -143 718 0 c684 0 720 1 735
18 14 15 17 42 17 155 l0 137 -723 0 c-549 0 -726 -3 -735 -12z"/>
<path d="M5161 976 c-8 -9 -11 -59 -9 -152 l3 -139 714 -3 c654 -2 716 -1 733
14 16 15 18 34 18 156 l0 138 -724 0 c-605 0 -725 -2 -735 -14z"/>
<path d="M6660 970 c-6 -12 -9 -72 -8 -152 l3 -133 714 -3 c654 -2 716 -1 733
14 16 15 18 34 18 156 l0 138 -725 0 c-713 0 -724 0 -735 -20z"/>
<path d="M8160 970 c-6 -12 -9 -72 -8 -152 l3 -133 714 -3 c654 -2 716 -1 733
14 16 15 18 34 18 156 l0 138 -725 0 c-713 0 -724 0 -735 -20z"/>
<path d="M9659 964 c-5 -15 -8 -84 -7 -153 l3 -126 258 -3 257 -2 0 155 0 155
-250 0 -250 0 -11 -26z"/>
<path d="M0 485 l0 -155 671 0 c588 0 673 2 683 15 7 10 10 64 8 155 l-3 140
-680 0 -679 0 0 -155z"/>
<path d="M1416 624 c-14 -13 -16 -38 -14 -155 l3 -140 720 1 c670 0 721 1 733
17 9 13 12 55 10 153 l-3 135 -717 3 c-646 2 -718 1 -732 -14z"/>
<path d="M2916 624 c-13 -13 -16 -41 -16 -155 l0 -139 725 0 c713 0 724 0 735
20 6 12 9 72 8 152 l-3 133 -717 3 c-641 2 -718 0 -732 -14z"/>
<path d="M4417 622 c-14 -15 -17 -42 -17 -155 l0 -137 723 0 c549 0 726 3 735
12 8 8 12 57 12 155 l0 143 -718 0 c-684 0 -720 -1 -735 -18z"/>
<path d="M5917 622 c-14 -15 -17 -42 -17 -155 l0 -137 723 0 c549 0 726 3 735
12 8 8 12 57 12 155 l0 143 -718 0 c-684 0 -720 -1 -735 -18z"/>
<path d="M7416 618 c-13 -18 -16 -51 -16 -155 l0 -133 723 0 c549 0 726 3 735
12 8 8 12 57 12 155 l0 143 -719 0 -720 0 -15 -22z"/>
<path d="M8916 618 c-13 -18 -16 -51 -16 -155 l0 -133 635 0 635 0 0 155 0
155 -619 0 -620 0 -15 -22z"/>
<path d="M0 140 l0 -140 305 0 305 0 0 140 0 140 -305 0 -305 0 0 -140z"/>
<path d="M662 268 c-8 -8 -12 -53 -12 -140 l0 -128 735 0 736 0 -3 137 -3 138
-720 3 c-552 2 -724 -1 -733 -10z"/>
<path d="M2162 268 c-8 -8 -12 -54 -12 -140 l0 -128 735 0 735 0 0 140 0 140
-723 0 c-549 0 -726 -3 -735 -12z"/>
<path d="M3662 268 c-8 -8 -12 -54 -12 -140 l0 -128 735 0 735 0 0 140 0 140
-723 0 c-549 0 -726 -3 -735 -12z"/>
<path d="M5160 261 c-5 -11 -10 -74 -10 -140 l0 -121 735 0 735 0 0 140 0 140
-725 0 c-706 0 -725 0 -735 -19z"/>
<path d="M6666 264 c-13 -12 -16 -40 -16 -140 l0 -124 735 0 735 0 0 140 0
140 -719 0 c-641 0 -721 -2 -735 -16z"/>
<path d="M8166 258 c-12 -17 -16 -50 -16 -140 l0 -118 735 0 735 0 0 140 0
140 -719 0 -720 0 -15 -22z"/>
<path d="M9666 258 c-12 -17 -16 -50 -16 -140 l0 -118 260 0 260 0 0 140 0
140 -244 0 c-242 0 -245 0 -260 -22z"/>
</g>
</svg>
