<svg xmlns="http://www.w3.org/2000/svg" shape-rendering="geometricPrecision" text-rendering="geometricPrecision" image-rendering="optimizeQuality" fill-rule="evenodd" clip-rule="evenodd" viewBox="0 0 308 511.921"><path fill-rule="nonzero" d="M276.464 434.711c10.425 18.421 12.316 32.942 9.096 42.797-1.308 4.005-3.498 7.156-6.269 9.362-2.766 2.203-6.17 3.539-9.905 3.91-8.047.798-17.633-2.724-26.385-11.38-.22-.218-.448-.424-.682-.618L42.055 286.874l.017-.017c-13.985-13.985-20.978-23.152-20.978-30.896 0-7.745 6.993-16.912 20.978-30.897.125-.125.246-.252.364-.382L242.982 32.501l.019.02c8.752-8.657 18.338-12.178 26.385-11.379 3.735.37 7.139 1.707 9.906 3.909 2.77 2.206 4.96 5.357 6.268 9.362 3.24 9.916 1.307 24.555-9.289 43.139l-.116.21-.008-.004-93.338 173.217a10.518 10.518 0 00.076 10.111l93.262 173.077c.101.188.207.37.317.548zm29.119 49.307c4.885-14.956 2.881-35.47-10.804-59.648l-90.744-168.409 90.652-168.233-.006-.003c13.774-24.254 15.799-44.83 10.902-59.822-2.643-8.091-7.258-14.608-13.19-19.332-5.936-4.726-13.135-7.583-20.947-8.358-13.938-1.384-29.767 3.95-43.277 17.312l.019.018-200.31 191.952c-.247.206-.487.424-.719.656C9.053 228.256 0 241.397 0 255.961c0 14.563 9.053 27.704 27.159 45.809l.019-.019 200.586 192.22c.13.145.265.286.405.425 13.509 13.362 29.339 18.696 43.277 17.313 7.812-.777 15.011-3.632 20.947-8.359 5.932-4.724 10.547-11.241 13.19-19.332z"/></svg>