<?xml version="1.0" encoding="UTF-8"?>
<svg id="Capa_2" data-name="Capa 2" xmlns="http://www.w3.org/2000/svg" xmlns:xlink="http://www.w3.org/1999/xlink" viewBox="0 0 275.1 317.16">
  <defs>
    <style>
      .cls-1 {
        stroke: url(#Degradado_sin_nombre_163);
        stroke-width: .65px;
      }

      .cls-1, .cls-2, .cls-3, .cls-4, .cls-5, .cls-6, .cls-7, .cls-8, .cls-9, .cls-10, .cls-11, .cls-12 {
        fill: none;
        stroke-miterlimit: 10;
      }

      .cls-2 {
        stroke: url(#Degradado_sin_nombre_172);
        stroke-width: 1.58px;
      }

      .cls-3 {
        stroke: url(#Degradado_sin_nombre_169);
        stroke-width: 1.27px;
      }

      .cls-4 {
        stroke: url(#Degradado_sin_nombre_170);
        stroke-width: 1.38px;
      }

      .cls-5 {
        stroke: url(#Degradado_sin_nombre_167);
        stroke-width: 1.07px;
      }

      .cls-6 {
        stroke: url(#Degradado_sin_nombre_162);
        stroke-width: .55px;
      }

      .cls-7 {
        stroke: url(#Degradado_sin_nombre_161);
        stroke-width: .45px;
      }

      .cls-8 {
        stroke: url(#Degradado_sin_nombre_166);
        stroke-width: .96px;
      }

      .cls-9 {
        stroke: url(#Degradado_sin_nombre_164);
        stroke-width: .76px;
      }

      .cls-10 {
        stroke: url(#Degradado_sin_nombre_165);
        stroke-width: .86px;
      }

      .cls-11 {
        stroke: url(#Degradado_sin_nombre_174);
        stroke-width: 1.79px;
      }

      .cls-12 {
        stroke: url(#Degradado_sin_nombre_168);
        stroke-width: 1.17px;
      }
    </style>
    <linearGradient id="Degradado_sin_nombre_174" data-name="Degradado sin nombre 174" x1="0" y1="158.58" x2="275.1" y2="158.58" gradientUnits="userSpaceOnUse">
      <stop offset="0" stop-color="#fe0"/>
      <stop offset=".05" stop-color="#f4ac23"/>
      <stop offset=".11" stop-color="#ea6f43"/>
      <stop offset=".16" stop-color="#e33f5d"/>
      <stop offset=".2" stop-color="#dd1c70"/>
      <stop offset=".24" stop-color="#da077b"/>
      <stop offset=".26" stop-color="#d90080"/>
      <stop offset=".29" stop-color="#cc0180"/>
      <stop offset=".47" stop-color="#870a80"/>
      <stop offset=".59" stop-color="#5b0f80"/>
      <stop offset=".65" stop-color="#4b1280"/>
      <stop offset=".72" stop-color="#481582"/>
      <stop offset=".77" stop-color="#42218a"/>
      <stop offset=".83" stop-color="#383497"/>
      <stop offset=".89" stop-color="#294fa9"/>
      <stop offset=".95" stop-color="#1671c1"/>
      <stop offset="1" stop-color="#009bdd"/>
    </linearGradient>
    <linearGradient id="Degradado_sin_nombre_172" data-name="Degradado sin nombre 172" x1="37.06" y1="228.98" x2="302.32" y2="228.98" gradientTransform="translate(-.37 -66.67) rotate(5.57) scale(.97)" gradientUnits="userSpaceOnUse">
      <stop offset="0" stop-color="#fe0"/>
      <stop offset=".04" stop-color="#f1c41b"/>
      <stop offset=".1" stop-color="#dd8743"/>
      <stop offset=".15" stop-color="#cd5763"/>
      <stop offset=".2" stop-color="#c1347a"/>
      <stop offset=".24" stop-color="#ba1f88"/>
      <stop offset=".26" stop-color="#b8188e"/>
      <stop offset=".28" stop-color="#b2198e"/>
      <stop offset=".65" stop-color="#541181"/>
      <stop offset=".69" stop-color="#551081"/>
      <stop offset=".75" stop-color="#4d208c"/>
      <stop offset=".87" stop-color="#3a4ba9"/>
      <stop offset="1" stop-color="#2283cf"/>
    </linearGradient>
    <linearGradient id="Degradado_sin_nombre_170" data-name="Degradado sin nombre 170" x1="90.07" y1="296.22" x2="341.07" y2="296.22" gradientTransform="translate(.92 -133.27) rotate(11.39) scale(.95)" gradientUnits="userSpaceOnUse">
      <stop offset="0" stop-color="#fe0"/>
      <stop offset=".02" stop-color="#f5dc0e"/>
      <stop offset=".08" stop-color="#d49f3f"/>
      <stop offset=".14" stop-color="#b96f67"/>
      <stop offset=".19" stop-color="#a64c83"/>
      <stop offset=".23" stop-color="#9b3794"/>
      <stop offset=".26" stop-color="#97309b"/>
      <stop offset=".28" stop-color="#91309c"/>
      <stop offset=".65" stop-color="#5d1182"/>
      <stop offset=".69" stop-color="#5f0d81"/>
      <stop offset=".69" stop-color="#600d81"/>
      <stop offset=".76" stop-color="#5a1d8c"/>
      <stop offset=".9" stop-color="#4d48a9"/>
      <stop offset="1" stop-color="#436bc1"/>
    </linearGradient>
    <linearGradient id="Degradado_sin_nombre_169" data-name="Degradado sin nombre 169" x1="124.6" y1="326.79" x2="366.82" y2="326.79" gradientTransform="translate(-.1 -166.63) rotate(14.38) scale(.95)" gradientUnits="userSpaceOnUse">
      <stop offset="0" stop-color="#fe0"/>
      <stop offset="0" stop-color="#fbe805"/>
      <stop offset=".07" stop-color="#d2ab3c"/>
      <stop offset=".14" stop-color="#b17b68"/>
      <stop offset=".19" stop-color="#9a5887"/>
      <stop offset=".23" stop-color="#8c439b"/>
      <stop offset=".26" stop-color="#873ca2"/>
      <stop offset=".28" stop-color="#813ca3"/>
      <stop offset=".65" stop-color="#621083"/>
      <stop offset=".69" stop-color="#650c81"/>
      <stop offset=".69" stop-color="#660c81"/>
      <stop offset=".77" stop-color="#621c8c"/>
      <stop offset=".92" stop-color="#5947a9"/>
      <stop offset="1" stop-color="#545fba"/>
    </linearGradient>
    <linearGradient id="Degradado_sin_nombre_168" data-name="Degradado sin nombre 168" x1="161.05" y1="355.05" x2="393.42" y2="355.05" gradientTransform="translate(.55 -199.93) rotate(17.39) scale(.95)" gradientUnits="userSpaceOnUse">
      <stop offset="0" stop-color="#fe0"/>
      <stop offset=".07" stop-color="#d0b539"/>
      <stop offset=".13" stop-color="#aa8669"/>
      <stop offset=".19" stop-color="#8e648c"/>
      <stop offset=".23" stop-color="#7d4fa1"/>
      <stop offset=".26" stop-color="#7748a9"/>
      <stop offset=".28" stop-color="#7148aa"/>
      <stop offset=".65" stop-color="#661084"/>
      <stop offset=".68" stop-color="#690c81"/>
      <stop offset=".69" stop-color="#6b0b81"/>
      <stop offset=".78" stop-color="#691b8c"/>
      <stop offset=".95" stop-color="#6646aa"/>
      <stop offset="1" stop-color="#6553b3"/>
    </linearGradient>
    <linearGradient id="Degradado_sin_nombre_167" data-name="Degradado sin nombre 167" x1="200.62" y1="380.19" x2="422.22" y2="380.19" gradientTransform="translate(1.19 -233.23) rotate(20.4) scale(.95)" gradientUnits="userSpaceOnUse">
      <stop offset="0" stop-color="#fe0"/>
      <stop offset="0" stop-color="#fceb02"/>
      <stop offset=".07" stop-color="#c7b63f"/>
      <stop offset=".13" stop-color="#9d8b6f"/>
      <stop offset=".19" stop-color="#7f6d92"/>
      <stop offset=".23" stop-color="#6c5aa7"/>
      <stop offset=".26" stop-color="#6654af"/>
      <stop offset=".28" stop-color="#6154b2"/>
      <stop offset=".65" stop-color="#6b1084"/>
      <stop offset=".68" stop-color="#6e0c81"/>
      <stop offset=".69" stop-color="#710980"/>
      <stop offset=".79" stop-color="#72198b"/>
      <stop offset=".99" stop-color="#7544a9"/>
      <stop offset="1" stop-color="#7648ac"/>
    </linearGradient>
    <linearGradient id="Degradado_sin_nombre_166" data-name="Degradado sin nombre 166" x1="244.38" y1="401.11" x2="454.39" y2="401.11" gradientTransform="translate(.17 -266.6) rotate(23.41) scale(.95)" gradientUnits="userSpaceOnUse">
      <stop offset="0" stop-color="#fe0"/>
      <stop offset="0" stop-color="#f6e609"/>
      <stop offset=".08" stop-color="#bdb746"/>
      <stop offset=".14" stop-color="#909176"/>
      <stop offset=".19" stop-color="#707699"/>
      <stop offset=".23" stop-color="#5d65ae"/>
      <stop offset=".26" stop-color="#5660b6"/>
      <stop offset=".28" stop-color="#5160b9"/>
      <stop offset=".65" stop-color="#6f1085"/>
      <stop offset=".68" stop-color="#720c82"/>
      <stop offset=".69" stop-color="#760880"/>
      <stop offset=".81" stop-color="#7b188b"/>
      <stop offset="1" stop-color="#873ca5"/>
    </linearGradient>
    <linearGradient id="Degradado_sin_nombre_165" data-name="Degradado sin nombre 165" x1="288.14" y1="418.69" x2="485.9" y2="418.69" gradientTransform="translate(.82 -299.9) rotate(26.39) scale(.95)" gradientUnits="userSpaceOnUse">
      <stop offset="0" stop-color="#fe0"/>
      <stop offset=".02" stop-color="#eee210"/>
      <stop offset=".08" stop-color="#b3b84d"/>
      <stop offset=".14" stop-color="#84977d"/>
      <stop offset=".19" stop-color="#627fa0"/>
      <stop offset=".23" stop-color="#4d71b5"/>
      <stop offset=".26" stop-color="#466cbd"/>
      <stop offset=".28" stop-color="#416cc0"/>
      <stop offset=".65" stop-color="#740f86"/>
      <stop offset=".68" stop-color="#770b83"/>
      <stop offset=".69" stop-color="#7c0780"/>
      <stop offset=".83" stop-color="#87178c"/>
      <stop offset="1" stop-color="#98309e"/>
    </linearGradient>
    <linearGradient id="Degradado_sin_nombre_164" data-name="Degradado sin nombre 164" x1="332.86" y1="432.18" x2="517.91" y2="432.18" gradientTransform="translate(1.46 -333.2) rotate(29.33) scale(.96)" gradientUnits="userSpaceOnUse">
      <stop offset="0" stop-color="#fe0"/>
      <stop offset=".03" stop-color="#e1dc1c"/>
      <stop offset=".09" stop-color="#a4b957"/>
      <stop offset=".15" stop-color="#749d86"/>
      <stop offset=".2" stop-color="#5188a7"/>
      <stop offset=".24" stop-color="#3c7cbc"/>
      <stop offset=".26" stop-color="#3578c4"/>
      <stop offset=".28" stop-color="#3077c7"/>
      <stop offset=".65" stop-color="#780f86"/>
      <stop offset=".68" stop-color="#7b0b83"/>
      <stop offset=".69" stop-color="#810580"/>
      <stop offset=".84" stop-color="#911289"/>
      <stop offset="1" stop-color="#a82497"/>
    </linearGradient>
    <linearGradient id="Degradado_sin_nombre_163" data-name="Degradado sin nombre 163" x1="378.11" y1="440.27" x2="550.23" y2="440.27" gradientTransform="translate(1.24 -365.7) rotate(32.22) scale(.97)" gradientUnits="userSpaceOnUse">
      <stop offset="0" stop-color="#fe0"/>
      <stop offset=".04" stop-color="#d1d72a"/>
      <stop offset=".1" stop-color="#94ba62"/>
      <stop offset=".15" stop-color="#64a28f"/>
      <stop offset=".2" stop-color="#4192af"/>
      <stop offset=".24" stop-color="#2c87c2"/>
      <stop offset=".26" stop-color="#2584ca"/>
      <stop offset=".28" stop-color="#2083ce"/>
      <stop offset=".65" stop-color="#7d0f87"/>
      <stop offset=".67" stop-color="#800b84"/>
      <stop offset=".69" stop-color="#870480"/>
      <stop offset=".81" stop-color="#970a85"/>
      <stop offset="1" stop-color="#b91890"/>
    </linearGradient>
    <linearGradient id="Degradado_sin_nombre_162" data-name="Degradado sin nombre 162" x1="423.49" y1="443.27" x2="582.91" y2="443.27" gradientTransform="translate(1.09 -399.87) rotate(35.05) scale(.98)" gradientUnits="userSpaceOnUse">
      <stop offset="0" stop-color="#fe0"/>
      <stop offset=".05" stop-color="#c0d537"/>
      <stop offset=".11" stop-color="#83bc6d"/>
      <stop offset=".16" stop-color="#53a998"/>
      <stop offset=".2" stop-color="#309bb7"/>
      <stop offset=".24" stop-color="#1b93ca"/>
      <stop offset=".26" stop-color="#1490d1"/>
      <stop offset=".28" stop-color="#108fd5"/>
      <stop offset=".65" stop-color="#810e87"/>
      <stop offset=".67" stop-color="#840a84"/>
      <stop offset=".69" stop-color="#8c0280"/>
      <stop offset=".79" stop-color="#9c0482"/>
      <stop offset=".99" stop-color="#c70b88"/>
      <stop offset="1" stop-color="#ca0c89"/>
    </linearGradient>
    <linearGradient id="Degradado_sin_nombre_161" data-name="Degradado sin nombre 161" x1="463.06" y1="439.74" x2="613.43" y2="439.74" gradientTransform="translate(1.74 -433.17) rotate(37.79)" gradientUnits="userSpaceOnUse">
      <stop offset="0" stop-color="#fe0"/>
      <stop offset="0" stop-color="#f7eb06"/>
      <stop offset=".07" stop-color="#add346"/>
      <stop offset=".12" stop-color="#6fbf7b"/>
      <stop offset=".17" stop-color="#3fafa5"/>
      <stop offset=".22" stop-color="#1ca4c3"/>
      <stop offset=".25" stop-color="#079dd5"/>
      <stop offset=".28" stop-color="#009bdc"/>
      <stop offset=".69" stop-color="#920180"/>
      <stop offset=".78" stop-color="#a20080"/>
      <stop offset=".95" stop-color="#cd0081"/>
      <stop offset="1" stop-color="#db0082"/>
    </linearGradient>
  </defs>
  <g id="OBJECTS">
    <g>
      <path class="cls-11" d="m64.77,90.82c-4.52-13.89-14.24-28.95-7.1-41.69,5.07-9.04,16.69-12.07,27.05-12.01,10.36.06,20.86,2.29,30.98.09C141.4,31.62,157.75-.66,183.99.95c20.49,1.26,33.22,22.98,38.26,42.88,5.04,19.9,6.88,42.05,20.75,57.18,4.95,5.4,11.15,9.52,16.26,14.77,17.76,18.24,19.2,48.67,6.88,70.95-12.32,22.28-36.07,36.68-60.93,42.18-13.35,2.95-27.34,3.68-39.92,9.04-35.12,14.96-49.37,61.1-85.02,74.77-19.02,7.3-41.97,3.06-57.14-10.53-14.14-12.68-20.01-37.3-6.09-50.22,7.95-7.38,20.36-9.27,26.82-17.98,9.61-12.95,0-31.48-11.83-42.44-11.82-10.97-26.88-20.85-30.2-36.64-11.43-54.34,84.84,3.3,62.93-64.09Z"/>
      <path class="cls-2" d="m119.06,56.36c14.51-3.93,26.64-15.89,39.15-23.25,7.5-4.44,15.08-7.34,23.77-6.13,13.04,1.8,22.49,12.78,28.88,25.42,2.48,4.89,4.54,9.98,6.12,14.9,4.53,14.14,7.57,29.13,15.6,41.23,1.93,2.91,4.14,5.67,6.75,8.2,4.78,4.62,10.6,8.17,15.52,12.66,17.28,15.77,20.8,42.14,10.46,63.15-9.99,20.31-31.26,33.44-53.49,38.88-1.83.45-3.71.76-5.5,1.29-4.3,1.27-7.47,3.48-11.38,5.15-5.58,2.39-12.31,2.96-18.15,3.19-3.83.15-7.57-.09-11.28.85-26.18,6.63-41.02,34.93-61.9,52.58-6.22,5.27-12.95,9.77-20.67,12.75-5.16,1.99-10.6,3.15-16.1,3.48-13.62.82-27.66-3.47-37.9-12.56-12.96-11.53-18.33-33.91-5.94-45.93,1.3-1.26,2.73-2.36,4.25-3.35,6.8-4.47,15.16-6.89,20.19-13.09,7.69-9.48,3.91-22.11-2.93-32.01-1.31-1.89-2.74-3.67-4.24-5.3-9.37-10.2-22.59-19.71-24.95-34.13-2.53-15.42,4.45-20.52,14.52-22.24,9.4-1.58,21.42-.26,31.11-1.86,12.5-2.06,20.67-8.96,14.42-31.74-1.23-4.48-2.94-9.14-4.49-13.79-2.8-8.4-4.9-16.77-1.14-24.32,4.14-8.35,13.74-11.6,22.46-12.21,8.72-.61,17.73.64,26.88-1.83Z"/>
      <path class="cls-4" d="m122.41,75.51c12.97-4.37,24.85-14.35,36.41-19.55,6.92-3.11,13.62-4.77,21.15-2.96,11.28,2.68,19.43,13.07,25.48,24.5,2.37,4.45,4.5,8.96,6.26,13.28,4.98,12.25,9.08,24.76,17.3,34.87,1.96,2.41,4.13,4.71,6.63,6.8,4.62,3.84,10.06,6.82,14.78,10.54,16.83,13.29,22.38,35.55,14.03,55.35-7.71,18.28-26.41,30.42-46.05,35.58-2.16.57-4.42.89-6.49,1.66-4.97,1.85-7.66,5.71-11.83,8.43-6.08,3.97-14.47,4.16-21.22,3.31-4.47-.56-8.72-2.01-13.17-1.49-24.63,2.9-40.34,28.33-60.51,44.21-5.99,4.73-12.39,8.87-19.62,11.69-4.84,1.89-9.93,3.06-15.09,3.48-12.77,1.04-26.1-2.6-35.78-11.09-11.77-10.39-16.65-30.52-5.79-41.63,1.14-1.17,2.4-2.19,3.75-3.13,6.05-4.22,13.53-6.49,18.32-11.78,7.3-8.09,5.24-18.55.53-27.38-.9-1.69-1.94-3.3-3.04-4.8-6.93-9.45-18.31-18.53-19.71-31.63-1.43-13.42,5.18-17.75,14.31-18.94,8.58-1.12,19.26.41,28.09-.89,11.45-1.66,18.92-8.02,14.78-27.76-.84-4.02-2.01-8.25-3.17-12.47-2.11-7.61-3.9-15.17-.99-22.06,3.23-7.65,10.79-11.12,17.86-12.4,7.07-1.28,14.6-1.01,22.77-3.75Z"/>
      <path class="cls-3" d="m124.09,85.08c12.2-4.59,23.94-13.6,35.04-17.7,6.63-2.45,12.89-3.48,19.83-1.37,10.4,3.13,17.91,13.21,23.78,24.03,2.31,4.23,4.47,8.45,6.33,12.47,5.21,11.31,9.83,22.58,18.16,31.68,1.97,2.16,4.12,4.23,6.58,6.11,4.53,3.45,9.8,6.14,14.41,9.49,16.61,12.05,23.16,32.24,15.82,51.45-6.59,17.25-23.98,28.95-42.33,33.94-2.32.63-4.77.95-6.98,1.85-5.31,2.15-7.75,6.83-12.06,10.08-6.33,4.76-15.56,4.75-22.75,3.37-4.79-.92-9.27-2.94-14.12-2.65-23.73,1.39-39.99,25.03-59.81,40.02-5.88,4.46-12.11,8.42-19.1,11.16-4.68,1.84-9.59,3.01-14.58,3.48-12.35,1.16-25.32-2.17-34.71-10.36-11.18-9.82-15.81-28.83-5.71-39.48,1.06-1.12,2.24-2.11,3.5-3.02,5.68-4.1,12.71-6.29,17.38-11.13,7.11-7.39,5.9-16.78,2.26-25.06-.7-1.6-1.54-3.12-2.44-4.55-5.71-9.09-16.18-17.94-17.08-30.38-.9-12.42,5.55-16.35,14.2-17.29,8.17-.89,18.18.74,26.59-.4,10.92-1.46,18.07-7.57,14.95-25.77-.65-3.8-1.54-7.8-2.52-11.8-1.77-7.21-3.4-14.38-.92-20.93,2.76-7.3,9.31-10.88,15.56-12.5,6.25-1.62,13.04-1.84,20.71-4.71Z"/>
      <path class="cls-12" d="m125.76,94.66c11.43-4.81,23.04-12.84,33.67-15.85,6.33-1.8,12.15-2.18,18.52.22,9.51,3.59,16.38,13.35,22.08,23.57,2.25,4.01,4.45,7.94,6.39,11.66,5.42,10.36,10.58,20.4,19.01,28.5,1.99,1.91,4.12,3.75,6.52,5.41,4.44,3.06,9.53,5.46,14.04,8.43,16.4,10.8,23.92,28.91,17.61,47.55-5.49,16.21-21.54,27.51-38.61,32.29-2.49.7-5.12,1.02-7.48,2.03-5.64,2.44-7.84,7.95-12.28,11.72-6.57,5.56-16.64,5.35-24.29,3.43-5.11-1.28-9.82-3.83-15.06-3.82-22.82.05-39.65,21.73-59.11,35.83-5.76,4.19-11.83,7.97-18.57,10.63-4.53,1.79-9.26,2.97-14.07,3.48-11.92,1.27-24.54-1.74-33.65-9.63-10.58-9.24-14.97-27.14-5.64-37.33.98-1.07,2.08-2.03,3.25-2.91,5.3-3.97,11.9-6.09,16.44-10.47,6.92-6.69,6.57-15.02,3.99-22.74-.5-1.5-1.14-2.94-1.83-4.3-4.49-8.74-14.07-17.33-14.46-29.13-.38-11.4,5.91-14.96,14.1-15.65,7.76-.65,17.1,1.07,25.08.09,10.4-1.26,17.24-7.13,15.13-23.79-.45-3.58-1.08-7.35-1.86-11.14-1.42-6.81-2.9-13.58-.84-19.81,2.3-6.95,7.84-10.65,13.27-12.59,5.43-1.95,11.48-2.66,18.66-5.67Z"/>
      <path class="cls-5" d="m127.44,104.23c10.66-5.03,22.13-12.09,32.3-14.01,6.04-1.14,11.42-.9,17.21,1.81,8.63,4.04,14.85,13.49,20.38,23.1,2.2,3.79,4.42,7.43,6.46,10.84,5.63,9.42,11.31,18.22,19.86,25.32,1.99,1.66,4.11,3.27,6.47,4.71,4.36,2.67,9.27,4.78,13.67,7.37,16.2,9.55,24.66,25.57,19.39,43.65-4.41,15.14-19.09,26.1-34.89,30.64-2.65.76-5.48,1.08-7.97,2.22-5.98,2.73-7.93,9.08-12.51,13.36-6.81,6.36-17.72,5.94-25.82,3.49-5.43-1.64-10.36-4.69-16.01-4.99-21.91-1.15-39.31,18.43-58.42,31.64-5.65,3.92-11.55,7.52-18.05,10.1-4.37,1.73-8.92,2.92-13.57,3.48-11.5,1.38-23.78-1.29-32.59-8.9-10.01-8.65-14.13-25.45-5.56-35.18.9-1.02,1.91-1.95,3-2.79,4.93-3.85,11.08-5.89,15.51-9.82,6.73-5.99,7.24-13.27,5.72-20.43-.3-1.41-.73-2.76-1.23-4.04-3.27-8.41-11.96-16.72-11.84-27.88.12-10.38,6.28-13.56,13.99-14,7.35-.41,16.01,1.41,23.57.58,9.87-1.06,16.43-6.71,15.3-21.8-.25-3.36-.61-6.91-1.2-10.48-1.08-6.42-2.41-12.78-.77-18.68,1.84-6.61,6.36-10.41,10.97-12.69,4.61-2.29,9.91-3.49,16.61-6.63Z"/>
      <path class="cls-8" d="m129.11,113.81c9.89-5.25,21.22-11.33,30.93-12.16,5.74-.49,10.69.39,15.9,3.4,7.75,4.48,13.32,13.64,18.68,22.64,2.14,3.57,4.39,6.92,6.53,10.03,5.83,8.48,12.05,16.04,20.71,22.14,2,1.41,4.11,2.79,6.41,4.02,4.27,2.28,9.01,4.1,13.3,6.32,16.01,8.28,25.38,22.21,21.18,39.75-3.36,14.07-16.64,24.69-31.17,28.99-2.82.83-5.83,1.14-8.46,2.4-6.31,3.02-8.01,10.2-12.74,15-7.05,7.16-18.8,6.53-27.35,3.55-5.75-2-10.92-5.51-16.95-6.16-21.02-2.24-38.96,15.13-57.72,27.46-5.53,3.65-11.27,7.07-17.52,9.57-4.21,1.68-8.59,2.88-13.06,3.48-11.07,1.49-23-.86-31.52-8.17-9.42-8.08-13.29-23.75-5.48-33.03.82-.98,1.75-1.86,2.75-2.68,4.56-3.72,10.26-5.69,14.57-9.17,6.54-5.3,7.92-11.54,7.45-18.11-.1-1.32-.33-2.58-.63-3.79-2.03-8.09-9.88-16.1-9.22-26.63.59-9.35,6.65-12.17,13.89-12.35,6.94-.18,14.93,1.74,22.06,1.07,9.34-.86,15.67-6.3,15.48-19.81-.05-3.15-.14-6.46-.54-9.81-.73-6.02-1.91-11.99-.69-17.55,1.37-6.27,4.89-10.17,8.67-12.79,3.78-2.62,8.35-4.31,14.55-7.59Z"/>
      <path class="cls-10" d="m130.79,123.39c9.12-5.47,20.31-10.59,29.56-10.31,5.45.16,9.96,1.67,14.59,4.99,6.87,4.92,11.79,13.78,16.99,22.17,2.09,3.35,4.36,6.41,6.6,9.22,6.02,7.54,12.77,13.88,21.56,18.95,2.01,1.16,4.1,2.3,6.36,3.32,4.19,1.89,8.75,3.41,12.93,5.26,15.82,7.01,26.05,18.84,22.97,35.85-2.35,12.98-14.18,23.3-27.45,27.34-2.98.91-6.18,1.21-8.95,2.59-6.65,3.32-8.1,11.33-12.96,16.64-7.28,7.96-19.88,7.12-28.89,3.61-6.07-2.36-11.49-6.29-17.9-7.32-20.17-3.24-38.62,11.83-57.02,23.27-5.42,3.38-10.99,6.62-17,9.04-4.05,1.63-8.25,2.83-12.56,3.48-10.65,1.6-22.22-.43-30.46-7.44-8.82-7.51-12.46-22.06-5.41-30.88.74-.93,1.58-1.78,2.5-2.57,4.19-3.6,9.45-5.49,13.63-8.51,6.34-4.6,8.62-9.81,9.17-15.8.11-1.23.08-2.41-.03-3.54-.77-7.79-7.83-15.48-6.59-25.38,1.04-8.32,7.02-10.77,13.78-10.7,6.53.06,13.85,2.07,20.55,1.56,8.82-.66,14.96-5.91,15.65-17.82.17-2.94.32-6.01.12-9.15-.39-5.62-1.42-11.2-.62-16.43.91-5.92,3.41-9.93,6.37-12.88,2.96-2.96,6.79-5.14,12.5-8.55Z"/>
      <path class="cls-9" d="m132.46,132.96c8.35-5.69,19.4-9.84,28.19-8.46,5.15.81,9.23,2.96,13.28,6.58,5.99,5.36,10.27,13.92,15.29,21.71,2.03,3.13,4.32,5.9,6.67,8.41,6.21,6.62,13.49,11.72,22.41,15.77,2.01.92,4.1,1.82,6.3,2.62,4.11,1.5,8.49,2.72,12.56,4.2,15.64,5.71,26.67,15.45,24.76,31.95-1.38,11.88-11.72,21.93-23.73,25.69-3.14.98-6.54,1.27-9.45,2.78-6.99,3.61-8.18,12.45-13.19,18.28-7.52,8.76-20.95,7.7-30.42,3.67-6.38-2.74-12.07-7.03-18.84-8.49-19.38-4.17-38.28,8.54-56.32,19.08-5.3,3.11-10.7,6.17-16.48,8.5-3.9,1.58-7.92,2.78-12.05,3.47-10.22,1.71-21.44,0-29.4-6.7-8.23-6.94-11.62-20.37-5.33-28.73.66-.88,1.42-1.7,2.26-2.46,3.81-3.47,8.63-5.29,12.7-7.86,6.15-3.9,9.35-8.07,10.9-13.48.33-1.14.5-2.23.57-3.29.53-7.49-5.81-14.86-3.97-24.13,1.45-7.29,7.38-9.37,13.68-9.05,6.12.31,12.77,2.41,19.04,2.05,8.29-.46,14.31-5.52,15.83-15.83.4-2.73.79-5.56.77-8.49-.04-5.22-.93-10.4-.54-15.3.44-5.58,1.94-9.7,4.08-12.98,2.14-3.29,5.22-5.96,10.45-9.51Z"/>
      <path class="cls-1" d="m134.14,142.54c7.58-5.91,18.5-9.11,26.82-6.61,4.86,1.46,8.5,4.24,11.96,8.16,5.11,5.8,8.74,14.07,13.59,21.25,1.98,2.91,4.28,5.4,6.74,7.59,6.38,5.7,14.21,9.57,23.27,12.59,2.02.67,4.09,1.34,6.24,1.93,4.03,1.11,8.24,2.02,12.19,3.15,15.46,4.4,27.21,12.07,26.54,28.05-.45,10.79-9.25,20.56-20.01,24.04-3.3,1.07-6.89,1.34-9.94,2.96-7.32,3.9-8.25,13.59-13.41,19.92-7.74,9.57-22.03,8.29-31.95,3.73-6.7-3.1-12.68-7.73-19.79-9.66-18.66-5.07-37.93,5.24-55.62,14.89-5.19,2.84-10.42,5.72-15.95,7.97-3.74,1.53-7.59,2.74-11.55,3.47-9.8,1.82-20.65.42-28.33-5.97-7.62-6.38-10.78-18.67-5.26-26.58.58-.84,1.25-1.62,2.01-2.34,3.44-3.34,7.82-5.09,11.76-7.2,5.96-3.21,10.11-6.32,12.63-11.17.55-1.05.92-2.06,1.17-3.04,1.87-7.17-3.85-14.26-1.35-22.88,1.82-6.28,7.75-7.96,13.57-7.4,5.71.55,11.69,2.74,17.54,2.54,7.77-.26,13.73-5.11,16-13.85.65-2.51,1.25-5.12,1.43-7.82.3-4.83-.44-9.61-.47-14.17-.03-5.24.46-9.46,1.78-13.08,1.32-3.63,3.66-6.79,8.39-10.47Z"/>
      <path class="cls-6" d="m135.81,152.11c6.81-6.13,17.6-8.38,25.45-4.76,4.57,2.1,7.78,5.52,10.65,9.75,4.25,6.23,7.21,14.21,11.89,20.78,1.92,2.69,4.24,4.91,6.81,6.78,6.56,4.79,14.94,7.44,24.12,9.41,2.03.43,4.09.85,6.19,1.23,3.95.71,7.98,1.32,11.82,2.09,15.28,3.06,27.66,8.71,28.33,24.15.42,9.71-6.79,19.19-16.29,22.39-3.45,1.16-7.24,1.4-10.43,3.15-7.66,4.19-8.34,14.71-13.64,21.57-7.98,10.37-23.11,8.89-33.49,3.79-7.02-3.45-13.31-8.38-20.73-10.83-18.01-5.94-37.59,1.94-54.93,10.71-5.07,2.57-10.14,5.27-15.43,7.44-3.58,1.47-7.25,2.69-11.04,3.47-9.37,1.93-19.87.85-27.27-5.24-7.03-5.81-9.94-16.98-5.18-24.43.5-.79,1.09-1.54,1.76-2.23,3.07-3.22,7-4.89,10.82-6.55,5.77-2.51,10.87-4.54,14.36-8.85.77-.95,1.34-1.87,1.78-2.79,3.24-6.82-1.96-13.69,1.27-21.63,2.15-5.29,8.11-6.55,13.47-5.76,5.29.81,10.61,3.08,16.03,3.03,7.24-.06,13.23-4.65,16.18-11.86.93-2.28,1.72-4.67,2.09-7.16.65-4.43.05-8.81-.39-13.04-.51-4.89-1.02-9.22-.52-13.17.5-3.96,2.1-7.61,6.34-11.43Z"/>
      <path class="cls-7" d="m212.94,202.62c-13.01-1.25-25.29-3.53-31.84-12.19-7.57-10.02-8.96-24.88-19.53-31.66-7.38-4.73-18.04-3.44-24.08,2.92-10.71,11.27,2.16,24.14-1.15,37.58-2.17,8.8-10.04,16.56-19.1,16.37-4.99-.1-9.64-2.47-14.52-3.51-4.88-1.05-10.91-.24-13.36,4.11-4.58,8.12,2.13,15.77-6.27,22.92-7.44,6.33-19.21,4.67-25.97,12.43-6.03,6.92-3.52,18.61,3.6,24.4,7.12,5.79,17.26,6.55,26.21,4.51,8.95-2.04,17.11-6.52,25.44-10.38,16.98-7.88,36.78-13.32,54.23-6.52,7.7,3,14.34,8.18,21.68,11.99,10.83,5.63,26.8,7.31,35.02-3.85,5.43-7.38,5.87-18.72,13.87-23.21,3.33-1.87,7.32-2.06,10.93-3.33,8.26-2.91,13.82-12.07,12.57-20.75-2.93-20.45-26.29-19.75-47.7-21.81Z"/>
    </g>
  </g>
</svg>